<?xml version="1.0" encoding="UTF-8"?>
<!DOCTYPE svg PUBLIC "-//W3C//DTD SVG 1.1//EN" "http://www.w3.org/Graphics/SVG/1.1/DTD/svg11.dtd">
<!-- Creator: CorelDRAW -->
<svg xmlns="http://www.w3.org/2000/svg" xml:space="preserve" width="102mm" height="81mm" style="shape-rendering:geometricPrecision; text-rendering:geometricPrecision; image-rendering:optimizeQuality; fill-rule:evenodd; clip-rule:evenodd"
viewBox="0 0 102 81">
 <defs>
  <style type="text/css">
   <![CDATA[
    .fil0 {fill:white}
   ]]>
  </style>
 </defs>
 <g id="Layer_x0020_1">
  <metadata id="CorelCorpID_0Corel-Layer"/>
  <path class="fil0" d="M0 0l2 0 86 0 2 0 0 2 0 51 0 2 -2 0 -84 0 0 -2 84 0 0 -51 -86 0 0 59 68 0 0 2 -68 0 -2 0 0 -2 0 -59 0 -2zm45 12l27 0 0 2 -27 0 0 -2zm0 32l23 0 0 2 -23 0 0 -2zm0 -4l18 0 0 2 -18 0 0 -2zm0 -4l27 0 0 2 -27 0 0 -2zm0 -4l23 0 0 2 -23 0 0 -2zm0 -4l18 0 0 2 -18 0 0 -2zm0 -4l27 0 0 2 -27 0 0 -2zm0 -4l23 0 0 2 -23 0 0 -2zm0 -4l18 0 0 2 -18 0 0 -2zm-39 -5.0286c1.3421,-0.0238 2.558,-0.58 3.4454,-1.4672 0.9003,-0.9003 1.46,-2.1388 1.4684,-3.5042l-4.9138 0 0 4.9714zm6.9061 -4.9714c-0.0084,1.9226 -0.7891,3.6606 -2.0467,4.9182 -1.2448,1.2446 -2.9602,2.0219 -4.8594,2.0457l0 6.0078c3.5509,-0.024 6.7667,-1.4758 9.102,-3.8109 2.3481,-2.3481 3.8034,-5.5867 3.8119,-9.1608l-6.0078 0zm-6.9061 23l1.8015 0 0.3439 -3.3123 0.0781 -0.7513 0.7422 -0.1315c0.6995,-0.1239 1.3854,-0.299 2.07,-0.5134 0.7057,-0.2209 1.4081,-0.4813 2.1208,-0.7692l0.733 -0.2961 0.4545 0.6477 1.925 2.7428 2.8095 -1.6212 -1.3615 -3.0457 -0.3059 -0.6844 0.5755 -0.4836c0.5295,-0.4449 1.0369,-0.9419 1.5345,-1.4827 0.5064,-0.5503 0.9835,-1.1251 1.4517,-1.7242l0.4887 -0.6253 0.7145 0.3323 3.0396 1.4135 1.6212 -2.8063 -2.7015 -1.9561 -0.6085 -0.4407 0.2569 -0.7077c0.2431,-0.6696 0.4344,-1.3503 0.5903,-2.0472 0.1572,-0.7026 0.2827,-1.4437 0.3918,-2.2201l0.111 -0.7896 0.7914 -0.0698 3.3318 -0.2942 0 -1.3637 -8.0939 0c-0.0085,4.1314 -1.6847,7.8694 -4.3901,10.5748 -2.6926,2.6924 -6.408,4.3651 -10.516,4.3891l0 8.0361zm25 -23l0 2.2791 0 0.9153 -0.9141 0.0808 -3.4628 0.3058c-0.0866,0.5329 -0.1861,1.0605 -0.3037,1.586 -0.1202,0.5376 -0.2579,1.0633 -0.4186,1.5787l2.8364 2.0538 0.7286 0.5275 -0.4512 0.7811 -2.5287 4.3772 -0.4563 0.7899 -0.825 -0.3836 -3.1572 -1.4681c-0.3497,0.4295 -0.7009,0.8397 -1.0575,1.2272 -0.3668,0.3987 -0.7489,0.7837 -1.1536,1.1551l1.4289 3.1964 0.3663 0.8193 -0.7804 0.4503 -4.3796 2.5272 -0.7897 0.4557 -0.5228 -0.7448 -1.9978 -2.8465c-0.5146,0.1958 -1.0243,0.3754 -1.5317,0.5343 -0.5245,0.1642 -1.0482,0.3074 -1.5758,0.426l-0.3611 3.4779 -0.0932 0.8984 -0.899 0 -2.7004 0 -1 0 -1 0 0 -25 0 -2 2 0 78 0 2 0 0 2 0 45 -2 0 0 -45 -53 0zm45 55l2 0 0 16 -2 0 0 -16zm-4 -4l22 0 0 5.02c0.1647,-0.0108 0.331,-0.0161 0.4985,-0.0161l0 -0.0039 0.0015 0 0.0007 0 0 0.0039c2.073,0.0002 3.9478,0.8384 5.3025,2.1934 1.3544,1.3545 2.1925,3.2288 2.1929,5.3012l0.0039 0 0 0.0015 0 0.0007 -0.0039 0c-0.0002,2.0729 -0.8384,3.9478 -2.1934,5.3025 -1.3545,1.3544 -3.2288,2.1925 -5.3012,2.1929l0 0.0039 -0.0015 0 -0.0007 0 0 -0.0039c-0.1677,0 -0.3344,-0.0057 -0.4993,-0.0166l0 4.0205 -22 0 0 -24zm22 7.0186l0 10.9625c0.1645,0.015 0.3311,0.0228 0.4993,0.0228l0 -0.0039 0.0007 0 0.0015 0 0 0.0039c1.5151,-0.0003 2.8899,-0.6175 3.8872,-1.6147 0.9978,-0.9976 1.6151,-2.3729 1.6152,-3.8885l-0.0039 0 0 -0.0007 0 -0.0015 0.0039 0c-0.0003,-1.5151 -0.6175,-2.8899 -1.6147,-3.8872 -0.9976,-0.9978 -2.3728,-1.6151 -3.8885,-1.6152l0 0.0039 -0.0007 0 -0.0015 0 0 -0.0039c-0.168,0 -0.3343,0.0077 -0.4985,0.0225zm-20 -5.0186l18 0 0 3.4294 0 2.1689 0 9.8029 0 2.1688 0 2.43 -18 0 0 -20zm-29 -2c0.5522,0 1,0.4478 1,1 0,0.5522 -0.4478,1 -1,1 -0.5522,0 -1,-0.4478 -1,-1 0,-0.5522 0.4478,-1 1,-1zm16.8737 22l-1.68 -14 2.0126 0 1.68 14 6.1137 0 0 2 -52 0 0 -2 8.1137 0 1.68 -14 2.0126 0 -1.68 14 33.7474 0z"/>
 </g>
</svg>
