<?xml version="1.0" encoding="UTF-8"?>
<!DOCTYPE svg PUBLIC "-//W3C//DTD SVG 1.1//EN" "http://www.w3.org/Graphics/SVG/1.1/DTD/svg11.dtd">
<!-- Creator: CorelDRAW -->
<svg xmlns="http://www.w3.org/2000/svg" xml:space="preserve" width="108px" height="81px" style="shape-rendering:geometricPrecision; text-rendering:geometricPrecision; image-rendering:optimizeQuality; fill-rule:evenodd; clip-rule:evenodd"
viewBox="0 0 108 81">
 <defs>
  <style type="text/css">
   <![CDATA[
    .rfil0 {fill:white}
   ]]>
  </style>
 </defs>
 <g id="Layer_x0020_1">
  <metadata id="CorelCorpID_0Corel-Layer"/>
  <path class="rfil0" d="M45 67l18 0 0 2 -18 0 0 -2zm38 -30l2 0 0 -2 -2 0 0 2zm0 4l2 0 0 -2 -2 0 0 2zm-2 -14l6 0 0 6 -6 0 0 -6zm2 2l2 0 0 2 -2 0 0 -2zm-62 8l2 0 0 -2 -2 0 0 2zm0 4l2 0 0 -2 -2 0 0 2zm-2 -14l6 0 0 6 -6 0 0 -6zm2 2l2 0 0 2 -2 0 0 -2zm11 -12l8.1445 -13.5117 0.8555 -1.4258 0.8555 1.4258 3.3223 5.5117 11.8222 0 0 2 -10.6166 0 1.2055 2 9.4111 0 0 2 -8.2055 0 1.2055 2 0 7.1427c0.9871,-0.0918 1.9873,-0.1387 2.9985,-0.1388l0 -0.0039 0.0015 0 0.0007 0 0 0.0039c2.0507,0.0001 4.056,0.1929 5.9993,0.5615l0 -24.5654 18 0 0 9 20 0 1 0 1 0 0 62 8 0 1 0 0 1 0 2 0 0.0007 -0.0039 0c-0.0002,1.9283 -0.7862,3.6784 -2.0519,4.944 -1.2653,1.2653 -3.0149,2.051 -4.9427,2.0514l0 0.0039 -0.0015 0 -94 0 -0.0007 0 0 -0.0039c-1.9283,-0.0002 -3.6784,-0.7862 -4.944,-2.0518 -1.2653,-1.2654 -2.051,-3.015 -2.0514,-4.9428l-0.0039 0 0 -0.0015 0 -2 0 -1 1 0 8 0 0 -62 1 0 1 0 23.6209 0 -1.2 2 -22.4209 0 0 60 34 0 2 0 14 0 2 0 34 0 0 -60 -20 0 0 2 16 0 2 0 0 2 0 48 0 2 -2 0 -16 0 -18 0 -46 0 0 -2 8.7721 0c-0.4326,-1.9396 -0.6896,-3.9453 -0.7527,-6l-2.0194 0 0 -6 2 0 0 -8 2 0 0 1.8503c1.6175,-4.3522 4.1538,-8.2566 7.374,-11.4768 0.5241,-0.5241 1.0665,-1.0302 1.626,-1.5172l0 -12.8563 0 -2zm15.6375 0l-3.6 -6 -0.0375 0 -6.0375 0 -3.6 6 13.275 0zm-32.6375 -4l17.2209 0 -1.2 2 -16.0209 0 0 12 -2 0 0 -14 1 0 1 0zm82 60l2 0 7 0 0 1 0 0.0007 0.0039 0c-0.0001,1.371 -0.5647,2.621 -1.4737,3.53 -0.9087,0.9087 -2.1583,1.4729 -3.5287,1.4732l0 -0.0039 -0.0015 0 -94 0 -0.0007 0 0 0.0039c-1.371,-0.0001 -2.6211,-0.5647 -3.53,-1.4736 -0.9087,-0.9088 -1.4729,-2.1583 -1.4732,-3.5288l0.0039 0 0 -0.0015 0 -1 43 0 0 0.0015 0.0039 0c0.0005,1.1028 0.4486,2.1024 1.1701,2.824 0.7217,0.7218 1.7218,1.1704 2.8253,1.1706l0 0.0039 0.0007 0 10 0 0.0015 0 0 -0.0039c1.1028,-0.0005 2.1024,-0.4486 2.824,-1.1701l-0.002 -0.002c0.7233,-0.724 1.1724,-1.7236 1.1726,-2.8233l0.0039 0 0 -0.0007 34 0zm-50 0l0 0.0015 -0.0039 0c0.0002,0.5454 0.227,1.045 0.5919,1.41 0.3652,0.3653 0.8653,0.5923 1.4113,0.5924l0 -0.0039 0.0007 0 10 0 0.0015 0 0 0.0039c0.5454,-0.0002 1.0449,-0.2269 1.41,-0.5919l0.0039 0c0.363,-0.3628 0.5884,-0.8627 0.5885,-1.4113l-0.0039 0 0 -0.0007 -14 0zm46 -58l0 48 -8.7721 0c0.4326,-1.9396 0.6894,-3.9453 0.7526,-6l2.0195 0 0 -6 -2 0 0 -8 -2 0 0 1.8494c-1.3799,-3.7122 -3.4289,-7.0986 -6,-10.0125l0 -19.8369 16 0zm-16 23l0 25 5.1805 0c0.4631,-1.9343 0.7392,-3.9409 0.8069,-6l-1.9874 0 0 -6 1.5881 0c-0.8097,-4.8191 -2.7699,-9.2498 -5.5881,-13zm-18 25l0 -36.4028c-1.9387,-0.3942 -3.9448,-0.6011 -5.9993,-0.6011l0 0.0039 -0.0007 0 -0.0015 0 0 -0.0039c-1.012,0 -2.0123,0.0503 -2.9985,0.1484l0 36.8555 9 0zm-27 0l0 -28.4225c-0.071,0.0696 -0.1417,0.1397 -0.212,0.21 -4.3143,4.3143 -7.3211,9.9337 -8.3759,16.2125l1.5879 0 0 6 -1.9873 0c0.0677,2.0591 0.3437,4.0656 0.8068,6l8.1805 0zm-11 -10l2 0 0 2 -2 0 0 -2zm62 0l2 0 0 2 -2 0 0 -2zm-45 -34l0 44 6 0 0 -44 -6 0zm-2 44l0 -44 -2 0 0 44 2 0zm10 0l0 -44 2 0 0 44 -2 0zm15 -50l7 0 0 2 -7 0 0 2 4 0 0 2 -4 0 0 2 4 0 0 2 -4 0 0 2 4 0 0 2 -4 0 0 2 4 0 0 2 -4 0 0 2 7 0 0 2 -7 0 0 2 4 0 0 2 -4 0 0 2 4 0 0 2 -4 0 0 2 4 0 0 2 -4 0 0 2 4 0 0 2 -4 0 0 2 7 0 0 2 -7 0 0 8 14 0 0 -61 -14 0 0 11zm6.5 -9c-1.9327,0 -3.5,1.5673 -3.5,3.5 0,1.9327 1.5673,3.5 3.5,3.5 1.9327,0 3.5,-1.5673 3.5,-3.5 0,-1.9327 -1.5673,-3.5 -3.5,-3.5zm0 2c-0.8283,0 -1.5,0.6717 -1.5,1.5 0,0.8283 0.6717,1.5 1.5,1.5 0.8283,0 1.5,-0.6717 1.5,-1.5 0,-0.8283 -0.6717,-1.5 -1.5,-1.5z"/>
 </g>
</svg>
