<?xml version="1.0" encoding="UTF-8"?>
<!DOCTYPE svg PUBLIC "-//W3C//DTD SVG 1.1//EN" "http://www.w3.org/Graphics/SVG/1.1/DTD/svg11.dtd">
<!-- Creator: CorelDRAW -->
<svg xmlns="http://www.w3.org/2000/svg" xml:space="preserve" width="94px" height="81px" style="shape-rendering:geometricPrecision; text-rendering:geometricPrecision; image-rendering:optimizeQuality; fill-rule:evenodd; clip-rule:evenodd"
viewBox="0 0 94 81">
 <defs>
  <style type="text/css">
   <![CDATA[
    .rfil0 {fill:white}
   ]]>
  </style>
 </defs>
 <g id="Layer_x0020_1">
  <metadata id="CorelCorpID_0Corel-Layer"/>
  <path class="rfil0" d="M0 0l2 0 86 0 2 0 0 2 0 23 2 0c1.1,0 2,0.9002 2,2l0 52c0,1.0998 -0.9002,2 -2,2l-36 0c-1.0998,0 -2,-0.9 -2,-2l0 -30 2 0 0 30 36 0 0 -52 -36 0 0 10 14.586 0 -2.293 -2.293 1.414 -1.414 4 4 0.707 0.707 -0.707 0.707 -4 4 -1.414 -1.414 2.293 -2.293 -24.586 0 0 -2 8 0 0 -10c0,-1.1 0.9,-2 2,-2l28 0 0 -19 -78 0 0 12 -2 0 0 -12 0 -2 2 0 78 0 2 0 0 2 0 19 2 0 0 -23 -86 0 0 59 50 0 0 2 -50 0 -2 0 0 -2 0 -59 0 -2zm13 13l27 0 0 2 -27 0 0 -2zm0 32l23 0 0 2 -23 0 0 -2zm0 -4l18 0 0 2 -18 0 0 -2zm0 -4l27 0 0 2 -27 0 0 -2zm0 -4l23 0 0 2 -23 0 0 -2zm0 -4l18 0 0 2 -18 0 0 -2zm0 -4l27 0 0 2 -27 0 0 -2zm0 -4l23 0 0 2 -23 0 0 -2zm0 -4l18 0 0 2 -18 0 0 -2zm36.293 33.707l-4 -4 -0.707 -0.707 0.707 -0.707 4 -4 1.414 1.414 -2.293 2.293 5.586 0 0 -4 2 0 0 4 17 0 0 2 -24.586 0 2.293 2.293 -1.414 1.414zm24.207 24.6379c0.5522,0 1,0.4478 1,1 0,0.5522 -0.4478,1 -1,1 -0.5522,0 -1,-0.4478 -1,-1 0,-0.5522 0.4478,-1 1,-1zm-15.5 -3.3449l31.5 0 0 2 -31.5 0 0 -2zm-13 -15c0.5522,0 1,0.4478 1,1 0,0.5522 -0.4478,1 -1,1 -0.5522,0 -1,-0.4478 -1,-1 0,-0.5522 0.4478,-1 1,-1zm-18.8863 22l1.68 -14 2.0126 0 -1.68 14 23.8737 0 0 2 -34 0 0 -2 8.1137 0zm-22.7039 -26l48.5902 0 0 2 -48.5902 0 0 -2z"/>
 </g>
</svg>
