<?xml version="1.0" encoding="UTF-8"?>
<!DOCTYPE svg PUBLIC "-//W3C//DTD SVG 1.1//EN" "http://www.w3.org/Graphics/SVG/1.1/DTD/svg11.dtd">
<!-- Creator: CorelDRAW -->
<svg xmlns="http://www.w3.org/2000/svg" xml:space="preserve" width="110px" height="81px" style="shape-rendering:geometricPrecision; text-rendering:geometricPrecision; image-rendering:optimizeQuality; fill-rule:evenodd; clip-rule:evenodd"
viewBox="0 0 110 81">
 <defs>
  <style type="text/css">
   <![CDATA[
    .rfil0 {fill:white}
   ]]>
  </style>
 </defs>
 <g id="Layer_x0020_1">
  <metadata id="CorelCorpID_0Corel-Layer"/>
  <path class="rfil0" d="M108 4l0 75 -46 0 0 2 46 0 2 0 0 -2 0 -75 0 -2 -6 0 0 2 4 0zm-79.0871 4.4781l0.0232 -0.0223 0.0039 -0.0039c1.18,-1.128 2.7138,-1.6768 4.2386,-1.6523 1.5221,0.0245 3.0355,0.6212 4.179,1.7837l0.0039 0.0039 0.0278 0.0285 4.7231 4.8781c0.9122,-0.4787 1.8573,-0.8811 2.8257,-1.2075 6.7486,-2.275 14.4835,-0.7434 19.8787,4.5408l0.7301 0.7151 -0.734 0.7106 -9.3383 9.0416 1.3916 1.4373 0.004 0.0039 0.0222 0.0231 0.0039 0.0039c1.1281,1.1798 1.677,2.7138 1.6523,4.2385 -0.0245,1.5222 -0.6213,3.0355 -1.7837,4.1791l-0.0039 0.0039 -0.0285 0.0278 -0.0039 0.004 -0.0232 0.0223 -0.0039 0.0039c-1.1799,1.128 -2.7137,1.6768 -4.2385,1.6523 -1.5221,-0.0245 -3.0355,-0.6212 -4.179,-1.7837l-0.0039 -0.0039 -0.0278 -0.0285 -1.3948 -1.4406 -8.6165 8.3428 -0.7378 0.7144 -0.6919 -0.7534 -0.0135 -0.0147 0 -0.0039c-1.0021,-1.0938 -1.8522,-2.2633 -2.551,-3.4843 -0.7031,-1.2283 -1.262,-2.5193 -1.677,-3.8473 -1.491,-4.772 -1.1007,-9.9976 1.151,-14.5212l-4.9454 -5.1078 -0.004 -0.0039 -0.0222 -0.0231 -0.0039 -0.0039c-1.1281,-1.1799 -1.677,-2.7138 -1.6523,-4.2385 0.0244,-1.5222 0.621,-3.0354 1.7835,-4.179l0.0039 -0.0039 0.0286 -0.0279 0.0039 -0.004zm11.4381 6.0636l-4.3913 -4.5354 -0.0278 -0.0285c-0.7623,-0.7729 -1.7705,-1.1696 -2.7845,-1.186 -1.018,-0.0164 -2.0429,0.3508 -2.8324,1.1055l-0.0001 -0.0001 -0.0192 0.0185 -0.0001 -0.0001 -0.0242 0.0236c-0.7731,0.7624 -1.1699,1.7706 -1.1862,2.7849 -0.0164,1.018 0.3508,2.0429 1.1055,2.8323l-0.0001 0.0001 0.0184 0.0191 -0.0001 0.0001 4.5367 4.6857c0.8004,-1.2504 1.757,-2.4284 2.8699,-3.506l0.0039 -0.004 0.0632 -0.061c0.842,-0.8077 1.7357,-1.524 2.6684,-2.1487zm7.9393 19.7088l1.3916 1.4372 0.0278 0.0285c0.7623,0.7729 1.7705,1.1696 2.7845,1.186 1.018,0.0164 2.043,-0.3509 2.8323,-1.1055l0.0001 0.0001 0.0192 -0.0185 0.0001 0.0001 0.0245 -0.0239c0.7728,-0.7623 1.1696,-1.7705 1.186,-2.7846 0.0164,-1.018 -0.3508,-2.0429 -1.1055,-2.8323l0.0001 -0.0001 -0.0184 -0.0191 0.0001 -0.0001 -1.3909 -1.4366 -5.7515 5.5688zm13.7097 -8.2505l-2 0 0 2 2 0 0 -2zm-30.3089 -14.6478c0.7935,-0.7682 2.0599,-0.7478 2.8281,0.0456 0.7682,0.7935 0.7478,2.0599 -0.0456,2.8281 -0.7935,0.7682 -2.0599,0.7478 -2.8281,-0.0457 -0.7682,-0.7934 -0.7478,-2.0598 0.0456,-2.828zm7.6865 25.9671c0.2696,0.481 0.0982,1.0898 -0.3828,1.3594 -0.481,0.2696 -1.0898,0.0982 -1.3594,-0.3828l-0.0018 -0.0032c-0.011,-0.0195 -0.0209,-0.0392 -0.0304,-0.0591 -0.4609,-0.8373 -0.8386,-1.7074 -1.1341,-2.5981 -0.3021,-0.9109 -0.5161,-1.8359 -0.6434,-2.7629 -0.6569,-4.7827 0.9464,-9.7328 4.5722,-13.2435l0.0018 -0.0017 0.0045 -0.0042 0.0058 -0.0055 -0.0004 -0.0004 0.0018 -0.0017 0.0148 -0.0134c0.2728,-0.263 0.5467,-0.5093 0.8209,-0.7382 0.3,-0.2503 0.5999,-0.483 0.8988,-0.6974 1.5787,-1.1321 3.3647,-1.9624 5.2638,-2.4388 0.535,-0.1337 1.0773,0.1916 1.211,0.7266 0.1337,0.535 -0.1916,1.0773 -0.7266,1.211 -1.6507,0.4141 -3.2062,1.138 -4.5842,2.1262 -0.2762,0.1981 -0.537,0.3995 -0.7816,0.6036 -0.256,0.2136 -0.4973,0.43 -0.723,0.6477l-0.0267 0.0259 -0.0018 0.0017 -0.0001 -0.0001c-3.1527,3.0602 -4.5465,7.371 -3.9744,11.5366 0.1118,0.8142 0.2973,1.6191 0.5574,2.4035 0.2546,0.7675 0.5837,1.5236 0.9881,2.2586 0.0097,0.0154 0.019,0.0309 0.028,0.047l0.0018 0.0032zm-0.3122 -19.1913l-0.0632 0.061 -0.0001 -0.0001c-4.9106,4.7576 -6.4355,11.6972 -4.5261,17.8086 0.3705,1.1858 0.8722,2.343 1.5052,3.4489 0.4735,0.8273 1.0159,1.6209 1.627,2.3708l25.0585 -24.2624c-4.7914,-4.1776 -11.3417,-5.3177 -17.0958,-3.3779 -1.174,0.3957 -2.3206,0.9243 -3.4179,1.5858 -1.0957,0.6607 -2.1326,1.4492 -3.0876,2.3653zm-17.0654 15.1043l0 23.9159 14.9223 15.8518 13.0777 0 0 -2 2 0 0 2 3 0 0.0007 0 0 0.0039c1.3747,0.0002 2.6242,0.5618 3.5295,1.4663l0.002 -0.002c0.9028,0.9029 1.4634,2.1525 1.4639,3.5303l0.0039 0 0 0.0015 0 1 0 1 0 0.0007 0 0.9993 -0.1046 0 -2.0661 0 -37.6586 0 -1.1707 0 -0.8953 0c-0.0658,-0.3227 -0.1007,-0.6566 -0.1008,-0.9985l-0.0039 0 0 -0.0015 0 -2 0 -0.0007 0.0039 0c0.0002,-1.3748 0.5617,-2.6242 1.4663,-3.5295l-0.002 -0.002c0.9029,-0.9028 2.1525,-1.4634 3.5303,-1.4639l0 -0.0039 0.0015 0 2.8778 0 -24.7946 -26.3391 -0.0039 -0.0039 -0.0282 -0.0304 -0.0039 -0.0078c-0.7343,-0.8016 -1.0786,-1.8229 -1.0414,-2.829 0.0128,-0.3459 0.0707,-0.6905 0.1726,-1.0235 0.1194,-0.7394 0.4491,-1.4535 0.993,-2.0473l0.0039 -0.0078 0.0282 -0.0304 0.0039 -0.0039 18.7926 -19.9631 0 -16.7138 0 -2 6 0 0 2 -4 0 0 14.5892 3.4017 -3.6136c0.1824,0.6464 0.4472,1.2746 0.7954,1.867 0.0239,0.0407 0.0484,0.081 0.0731,0.1213l-21.6657 23.0153c0.8861,0.123 1.737,0.535 2.3913,1.2302l1.0072 1.07 20.9555 -22.2608 1.3894 1.435 -20.9747 22.2813 10.6268 11.2887 0 -19.6667 2 -2.1246zm46 -7.2323l2 0 0 2 -2 0 0 -2zm-4 0l2 0 0 2 -2 0 0 -2zm-34 -26l0 6 -2 0 0 -6 2 0zm72 0l0 6 -2 0 0 -6 2 0zm-4 0l0 6 -2 0 0 -6 2 0zm-4 0l0 6 -2 0 0 -6 2 0zm-4 0l0 6 -2 0 0 -6 2 0zm-4 0l0 6 -2 0 0 -6 2 0zm-4 0l0 6 -2 0 0 -6 2 0zm-4 0l0 6 -2 0 0 -6 2 0zm-4 0l0 6 -2 0 0 -6 2 0zm-4 0l0 6 -2 0 0 -6 2 0zm-4 0l0 6 -2 0 0 -6 2 0zm-4 0l0 6 -2 0 0 -6 2 0zm-4 0l0 6 -2 0 0 -6 2 0zm-4 0l0 6 -2 0 0 -6 2 0zm-4 0l0 6 -2 0 0 -6 2 0zm-4 0l0 6 -2 0 0 -6 2 0zm-4 0l0 6 -2 0 0 -6 2 0zm-4 0l0 6 -2 0 0 -6 2 0zm-4 0l0 6 -2 0 0 -6 2 0zm24 79l-38 0 0 -1 0 -0.0007 -0.0039 0c0.0001,-0.8236 0.3381,-1.5735 0.8822,-2.1175l0.0039 0c0.5462,-0.5462 1.2958,-0.8855 2.1163,-0.8857l0 0.0039 0.0015 0 32 0 0.0007 0 0 -0.0039c0.8236,0.0001 1.5735,0.3381 2.1175,0.8822l0 0.0039c0.5462,0.5463 0.8855,1.2958 0.8857,2.1163l-0.0039 0 0 0.0015 0 1zm-29.382 -6l5.564 0 -28.6394 -30.4234c-0.5491,-0.5834 -1.3795,-0.7707 -2.1136,-0.5499 -0.1402,0.0421 -0.2775,0.1001 -0.4087,0.1736 -0.1386,0.0776 -0.2646,0.1666 -0.374,0.2658l-0.0004 0.0004 0.0014 0.0015 -0.0304 0.0282 -0.0001 -0.0001c-0.3926,0.3716 -0.6004,0.865 -0.6188,1.3641 -0.0186,0.5023 0.151,1.0107 0.5124,1.4086l0.0017 -0.0016 0.0282 0.0304 -0.0001 0.0001 26.0778 27.7023zm0.382 -25.9897l27 0 0 2 -27 0 0 -2zm0 12l27 0 0 2 -27 0 0 -2zm0 -4l23 0 0 2 -23 0 0 -2zm0 -4l18 0 0 2 -18 0 0 -2zm55 -13.0103l2 0 0 1.586 3.293 -3.293 1.414 1.414 -5 5 -0.707 0.707 -0.707 -0.707 -5 -5 1.414 -1.414 3.293 3.293 0 -1.586zm0 -4l2 0 0 2 -2 0 0 -2zm0 -4l2 0 0 2 -2 0 0 -2zm0 -4l2 0 0 2 -2 0 0 -2zm-4 0l2 0 0 2 -2 0 0 -2zm-4 0l2 0 0 2 -2 0 0 -2zm-4 0l2 0 0 2 -2 0 0 -2zm-2 19l32 0 0 18 -32 0 0 -18zm2 2l28 0 0 14 -28 0 0 -14z"/>
 </g>
</svg>
