<?xml version="1.0" encoding="UTF-8"?>
<!DOCTYPE svg PUBLIC "-//W3C//DTD SVG 1.1//EN" "http://www.w3.org/Graphics/SVG/1.1/DTD/svg11.dtd">
<!-- Creator: CorelDRAW -->
<svg xmlns="http://www.w3.org/2000/svg" xml:space="preserve" width="24mm" height="15mm" style="shape-rendering:geometricPrecision; text-rendering:geometricPrecision; image-rendering:optimizeQuality; fill-rule:evenodd; clip-rule:evenodd"
viewBox="0 0 24 15">
 <defs>
  <style type="text/css">
   <![CDATA[
    .fil0 {fill:#383431}
   ]]>
  </style>
 </defs>
 <g id="Layer_x0020_1">
  <metadata id="CorelCorpID_0Corel-Layer"/>
  <path class="fil0" d="M0 4.9913l4.9913 -4.9913 19.0087 0 0 15 -19.0087 0 -4.9913 -4.9913 0 -0.0087 0 -5 0 -0.0087zm5.5 5.0087c1.3805,0 2.5,-1.1195 2.5,-2.5 0,-1.3805 -1.1195,-2.5 -2.5,-2.5 -1.3805,0 -2.5,1.1195 -2.5,2.5 0,1.3805 1.1195,2.5 2.5,2.5zm0 -1c0.8283,0 1.5,-0.6717 1.5,-1.5 0,-0.8283 -0.6717,-1.5 -1.5,-1.5 -0.8283,0 -1.5,0.6717 -1.5,1.5 0,0.8283 0.6717,1.5 1.5,1.5zm-0.0943 -8l-4.4057 4.4057 0 4.1886 4.4057 4.4057 17.5943 0 0 -13 -17.5943 0z"/>
 </g>
</svg>
