<?xml version="1.0" encoding="UTF-8"?>
<!DOCTYPE svg PUBLIC "-//W3C//DTD SVG 1.1//EN" "http://www.w3.org/Graphics/SVG/1.1/DTD/svg11.dtd">
<!-- Creator: CorelDRAW -->
<svg xmlns="http://www.w3.org/2000/svg" xml:space="preserve" width="21mm" height="22mm" style="shape-rendering:geometricPrecision; text-rendering:geometricPrecision; image-rendering:optimizeQuality; fill-rule:evenodd; clip-rule:evenodd"
viewBox="0 0 21 22">
 <defs>
  <style type="text/css">
   <![CDATA[
    .fil0 {fill:#C22B3C}
   ]]>
  </style>
 </defs>
 <g id="Layer_x0020_1">
  <metadata id="CorelCorpID_0Corel-Layer"/>
  <path class="fil0" d="M0 3l7 0 0 -2 0 -1 1 0 5 0 1 0 0 1 0 2 7 0 0 1 -2 0 0 17 0 1 -1 0 -4 0 -1 0 -5 0 -1 0 -4 0 -1 0 0 -1 0 -17 -2 0 0 -1zm8 -2l0 2 5 0 0 -2 -5 0zm0 3l0 17 5 0 0 -17 -5 0zm-1 17l0 -17 -4 0 0 17 4 0zm7 -17l0 17 4 0 0 -17 -4 0z"/>
 </g>
</svg>
