<?xml version="1.0" encoding="UTF-8"?>
<!DOCTYPE svg PUBLIC "-//W3C//DTD SVG 1.1//EN" "http://www.w3.org/Graphics/SVG/1.1/DTD/svg11.dtd">
<!-- Creator: CorelDRAW -->
<svg xmlns="http://www.w3.org/2000/svg" xml:space="preserve" width="28px" height="22px" style="shape-rendering:geometricPrecision; text-rendering:geometricPrecision; image-rendering:optimizeQuality; fill-rule:evenodd; clip-rule:evenodd"
viewBox="0 0 28 22">
 <defs>
  <style type="text/css">
   <![CDATA[
    .fil0 {fill:#383431;fill-rule:nonzero}
   ]]>
  </style>
 </defs>
 <g id="Layer_x0020_1">
  <metadata id="CorelCorpID_0Corel-Layer"/>
  <path class="fil0" d="M13.7863 21.9979c-2.954,-0.0566 -5.6226,-1.2762 -7.5655,-3.2191 -0.6774,-0.6773 -1.2664,-1.4426 -1.7492,-2.2775l0.8653 -0.4996c0.4394,0.7586 0.9752,1.454 1.5911,2.07 1.7543,1.7543 4.1559,2.861 6.8135,2.9288 0.1731,0.0042 0.3442,0.0042 0.5173,0 2.6574,-0.0677 5.0586,-1.1742 6.8129,-2.9283 1.8115,-1.8111 2.9322,-4.3116 2.9323,-7.0715l-0.002 0 0 -0.0007 0 -0.0015 0.002 0c0,-0.1514 -0.0037,-0.3022 -0.0106,-0.4521l-2.2858 2.2881 -0.7063 -0.7071 3.1462 -3.1493 0.3531 -0.3537 0.3533 0.3537 3.1463 3.1493 -0.7064 0.7071 -2.3037 -2.3058c0.0066,0.1557 0.0101,0.3125 0.0101,0.4698l0.002 0 0 0.0015 0 0.0007 -0.002 0c-0.0002,3.0386 -1.2312,5.789 -3.2213,7.7786 -1.9381,1.938 -4.5979,3.1561 -7.5431,3.2182 -0.1564,0.0032 -0.2938,0.0032 -0.4495,0.0004zm0.6398 -21.9896c2.8693,0.1094 5.457,1.3166 7.3533,3.2129 0.6774,0.6773 1.2664,1.4426 1.7492,2.2775l-0.8653 0.4996c-0.4394,-0.7586 -0.9752,-1.454 -1.5911,-2.07 -1.7408,-1.7456 -4.0716,-2.8487 -6.7646,-2.9274 -0.2103,-0.0059 -0.42,-0.006 -0.6304,0.0006 -2.6316,0.0837 -5.0086,1.1864 -6.7487,2.9263 -1.8115,1.8111 -2.9322,4.3116 -2.9323,7.0715l0.002 0 0 0.0007 0 0.0015 -0.002 0c0,0.1514 0.0038,0.3022 0.0106,0.4521l2.2858 -2.2881 0.7064 0.7071 -3.1463 3.1493 -0.3531 0.3537 -0.3533 -0.3537 -3.1463 -3.1493 0.7065 -0.7071 2.3036 2.3058c-0.0066,-0.1557 -0.0101,-0.3125 -0.0101,-0.4698l-0.002 0 0 -0.0015 0 -0.0007 0.002 0c0.0002,-3.0386 1.2312,-5.789 3.2213,-7.7786 1.9274,-1.9272 4.5686,-3.1425 7.4941,-3.2169 0.2417,-0.0061 0.4657,-0.0047 0.7107,0.0045z"/>
 </g>
</svg>
